<svg width="130" height="130" viewBox="0 0 130 130" fill="none" xmlns="http://www.w3.org/2000/svg">
<rect width="130" height="130" rx="11.0415" fill="#FF8F3F"/>
<path fill-rule="evenodd" clip-rule="evenodd" d="M56.2588 53.3038C56.1469 53.4709 55.9677 53.6076 55.8607 53.6076C55.7538 53.6076 55.4881 53.8127 55.2706 54.0633C55.053 54.3139 54.7989 54.519 54.7059 54.519C54.6129 54.519 54.3587 54.724 54.1412 54.9747C53.9236 55.2253 53.6695 55.4304 53.5765 55.4304C53.4834 55.4304 53.2293 55.6354 53.0118 55.8861C52.7942 56.1367 52.5285 56.3418 52.4216 56.3418C52.3146 56.3418 52.1355 56.4785 52.0235 56.6456C51.9116 56.8126 51.7324 56.9494 51.6254 56.9494C51.5185 56.9494 51.2528 57.1544 51.0353 57.4051C50.8177 57.6557 50.5636 57.8607 50.4706 57.8607C50.3776 57.8607 50.1234 58.0658 49.9059 58.3164C49.6883 58.5671 49.4226 58.7721 49.3158 58.7721C49.2088 58.7721 49.0296 58.9088 48.9176 59.0759C48.8057 59.243 48.6265 59.3797 48.5195 59.3797C48.4127 59.3797 48.147 59.5848 47.9294 59.8354C47.7119 60.0861 47.4577 60.2911 47.3647 60.2911C47.2717 60.2911 47.0176 60.4962 46.8 60.7468C46.5824 60.9975 46.3168 61.2025 46.2099 61.2025C46.1029 61.2025 45.9237 61.3392 45.8118 61.5063C45.6998 61.6734 45.5225 61.8101 45.4176 61.8101C45.1307 61.8101 44.7112 62.3015 44.9307 62.3802C45.0271 62.4148 45.1059 62.6424 45.1059 62.886C45.1059 63.1298 45.1694 63.3291 45.2471 63.3291C45.3247 63.3291 45.3882 63.5342 45.3882 63.7848C45.3882 64.0354 45.4518 64.2405 45.5294 64.2405C45.6071 64.2405 45.6706 64.4455 45.6706 64.6962C45.6706 64.9468 45.7341 65.1519 45.8118 65.1519C45.8894 65.1519 45.9529 65.4253 45.9529 65.7595C45.9529 66.0936 46.0165 66.3671 46.0941 66.3671C46.1718 66.3671 46.2353 66.5721 46.2353 66.8228C46.2353 67.0734 46.2988 67.2784 46.3765 67.2784C46.4541 67.2784 46.5176 67.4835 46.5176 67.7341C46.5176 67.9848 46.5812 68.1898 46.6588 68.1898C46.7365 68.1898 46.8 68.3949 46.8 68.6455C46.8 68.8962 46.8635 69.1012 46.9412 69.1012C47.0188 69.1012 47.0824 69.3063 47.0824 69.5569C47.0824 69.8076 47.1459 70.0126 47.2235 70.0126C47.3012 70.0126 47.3647 70.2177 47.3647 70.4683C47.3647 70.7189 47.4282 70.924 47.5059 70.924C47.5835 70.924 47.6471 71.1291 47.6471 71.3797C47.6471 71.6303 47.7106 71.8354 47.7882 71.8354C47.8659 71.8354 47.9294 72.0405 47.9294 72.2911C47.9294 72.5417 47.9929 72.7468 48.0706 72.7468C48.1482 72.7468 48.2118 72.9519 48.2118 73.2025C48.2118 73.4531 48.2753 73.6582 48.3529 73.6582C48.4306 73.6582 48.4941 73.8632 48.4941 74.1139C48.4941 74.3645 48.5576 74.5696 48.6353 74.5696C48.7129 74.5696 48.7765 74.7746 48.7765 75.0253C48.7765 75.2759 48.84 75.481 48.9176 75.481C48.9953 75.481 49.0588 75.686 49.0588 75.9367C49.0588 76.1873 49.1224 76.3924 49.2 76.3924C49.2776 76.3924 49.3412 76.5291 49.3412 76.6961C49.3412 76.996 49.4353 76.9999 56.4806 76.9999C64.2237 76.9999 64.0235 77.0218 64.0235 76.1753C64.0235 75.9605 64.0871 75.7848 64.1647 75.7848C64.2424 75.7848 64.3059 75.5797 64.3059 75.3291C64.3059 75.0784 64.3694 74.8734 64.4471 74.8734C64.5247 74.8734 64.5882 74.6683 64.5882 74.4177C64.5882 74.167 64.6518 73.962 64.7294 73.962C64.8071 73.962 64.8706 73.7569 64.8706 73.5063C64.8706 73.2557 64.9341 73.0506 65.0118 73.0506C65.0894 73.0506 65.1529 72.8455 65.1529 72.5949C65.1529 72.3443 65.2165 72.1392 65.2941 72.1392C65.3718 72.1392 65.4353 71.9341 65.4353 71.6835C65.4353 71.4329 65.4988 71.2278 65.5765 71.2278C65.6541 71.2278 65.7176 70.9544 65.7176 70.6202C65.7176 70.286 65.7812 70.0126 65.8588 70.0126C65.9365 70.0126 66 69.8076 66 69.5569C66 69.3063 66.0635 69.1012 66.1412 69.1012C66.2188 69.1012 66.2824 68.8962 66.2824 68.6455C66.2824 68.3949 66.3459 68.1898 66.4235 68.1898C66.5012 68.1898 66.5647 67.9848 66.5647 67.7341C66.5647 67.4835 66.6282 67.2784 66.7059 67.2784C66.7835 67.2784 66.8471 67.0734 66.8471 66.8228C66.8471 66.5721 66.9106 66.3671 66.9882 66.3671C67.0659 66.3671 67.1294 66.162 67.1294 65.9114C67.1294 65.6607 67.1929 65.4557 67.2706 65.4557C67.3482 65.4557 67.4118 65.2506 67.4118 65C67.4118 64.7493 67.4753 64.5443 67.5529 64.5443C67.6306 64.5443 67.6941 64.3392 67.6941 64.0886C67.6941 63.838 67.7576 63.6329 67.8353 63.6329C67.9129 63.6329 67.9765 63.4278 67.9765 63.1772C67.9765 62.9266 68.04 62.7215 68.1176 62.7215C68.1953 62.7215 68.2588 62.6141 68.2588 62.4829C68.2588 62.2026 67.9271 61.8101 67.6903 61.8101C67.5994 61.8101 67.347 61.605 67.1294 61.3544C66.9119 61.1038 66.6577 60.8987 66.5647 60.8987C66.4717 60.8987 66.2176 60.6937 66 60.443C65.7824 60.1924 65.5168 59.9873 65.4099 59.9873C65.3029 59.9873 65.1237 59.8506 65.0118 59.6835C64.8998 59.5164 64.7207 59.3797 64.6136 59.3797C64.5068 59.3797 64.2411 59.1747 64.0235 58.924C63.806 58.6734 63.5519 58.4683 63.4588 58.4683C63.3658 58.4683 63.1117 58.2633 62.8941 58.0126C62.6766 57.762 62.4109 57.557 62.304 57.557C62.197 57.557 62.0178 57.4202 61.9059 57.2532C61.7939 57.0861 61.6148 56.9494 61.5078 56.9494C61.4009 56.9494 61.1352 56.7443 60.9176 56.4937C60.7001 56.243 60.4344 56.038 60.3275 56.038C60.2205 56.038 60.0414 55.9013 59.9294 55.7342C59.8175 55.5671 59.6383 55.4304 59.5313 55.4304C59.4244 55.4304 59.1587 55.2253 58.9412 54.9747C58.7236 54.724 58.4695 54.519 58.3765 54.519C58.2834 54.519 58.0293 54.3139 57.8118 54.0633C57.5942 53.8127 57.3285 53.6076 57.2216 53.6076C57.1146 53.6076 56.9355 53.4709 56.8235 53.3038C56.7116 53.1367 56.5845 53 56.5412 53C56.4978 53 56.3708 53.1367 56.2588 53.3038ZM18 67.4303V76.9999H21.3882H24.7765V69.405V61.8101H26.7529H28.7294V59.8354V57.8607H23.3647H18V67.4303ZM30.9882 67.4303V76.9999H34.2353H37.4824V74.1139V71.2278H38.0471C38.3576 71.2278 38.6118 71.1595 38.6118 71.0759C38.6118 70.9924 38.9294 70.924 39.3176 70.924C39.7059 70.924 40.0235 70.8557 40.0235 70.7721C40.0235 70.6886 40.1506 70.6202 40.3059 70.6202C40.4612 70.6202 40.5882 70.5519 40.5882 70.4683C40.5882 70.3848 40.7153 70.3164 40.8706 70.3164C41.0259 70.3164 41.1529 70.2481 41.1529 70.1645C41.1529 70.081 41.2496 70.0126 41.3678 70.0126C41.6473 70.0126 43.1294 68.418 43.1294 68.1172C43.1294 67.9901 43.1929 67.886 43.2706 67.886C43.3482 67.886 43.4118 67.7493 43.4118 67.5822C43.4118 67.4152 43.4753 67.2784 43.5529 67.2784C43.6306 67.2784 43.6941 67.1417 43.6941 66.9747C43.6941 66.8076 43.7576 66.6709 43.8353 66.6709C43.9129 66.6709 43.9765 66.3291 43.9765 65.9114C43.9765 65.4936 44.04 65.1519 44.1176 65.1519C44.1953 65.1519 44.2588 64.8785 44.2588 64.5443C44.2588 64.2101 44.1953 63.9367 44.1176 63.9367C44.04 63.9367 43.9765 63.5949 43.9765 63.1772C43.9765 62.7595 43.9129 62.4177 43.8353 62.4177C43.7576 62.4177 43.6941 62.281 43.6941 62.1139C43.6941 61.9468 43.6306 61.8101 43.5529 61.8101C43.4753 61.8101 43.4118 61.6734 43.4118 61.5063C43.4118 61.3392 43.3482 61.2025 43.2706 61.2025C43.1929 61.2025 43.1294 61.0985 43.1294 60.9713C43.1294 60.6706 41.6473 59.0759 41.3678 59.0759C41.2496 59.0759 41.1529 59.0076 41.1529 58.924C41.1529 58.8405 41.0259 58.7721 40.8706 58.7721C40.7153 58.7721 40.5882 58.7038 40.5882 58.6202C40.5882 58.5367 40.4612 58.4683 40.3059 58.4683C40.1506 58.4683 40.0235 58.4 40.0235 58.3164C40.0235 58.2329 39.7694 58.1645 39.4588 58.1645C39.1482 58.1645 38.8941 58.0962 38.8941 58.0126C38.8941 57.915 37.4824 57.8607 34.9412 57.8607H30.9882V67.4303ZM69.3882 59.9873V62.1139H70.5946C71.6873 62.1139 71.8337 62.149 72.1475 62.4868C72.4248 62.785 72.4941 63.0144 72.4941 63.6329C72.4941 64.6793 72.0789 65.1519 71.1593 65.1519H70.5177V67.2784V69.405H72.01C73.549 69.405 73.9059 69.5317 73.9059 70.0778C73.9059 70.209 73.9694 70.3164 74.0471 70.3164C74.1247 70.3164 74.1882 70.6271 74.1882 71.0068C74.1882 71.5374 74.1081 71.7836 73.8417 72.0701C73.5035 72.434 73.4424 72.443 71.3005 72.443H69.1059V74.7215V76.9999H73.3412C76.0705 76.9999 77.5765 76.9459 77.5765 76.848C77.5765 76.7645 77.7671 76.6961 78 76.6961C78.2329 76.6961 78.4235 76.6278 78.4235 76.5443C78.4235 76.4607 78.5366 76.3924 78.6747 76.3924C78.8129 76.3924 79.0175 76.2556 79.1294 76.0886C79.2414 75.9215 79.4187 75.7848 79.5236 75.7848C79.7821 75.7848 80.1176 75.4049 80.1176 75.112C80.1176 74.9808 80.1812 74.8734 80.2588 74.8734C80.3365 74.8734 80.4 74.7367 80.4 74.5696C80.4 74.4025 80.4635 74.2658 80.5412 74.2658C80.6188 74.2658 80.6824 74.1291 80.6824 73.962C80.6824 73.7949 80.7459 73.6582 80.8235 73.6582C80.9104 73.6582 80.9647 72.8987 80.9647 71.6835C80.9647 70.4683 80.9104 69.7088 80.8235 69.7088C80.7459 69.7088 80.6824 69.5721 80.6824 69.405C80.6824 69.2379 80.6188 69.1012 80.5412 69.1012C80.4635 69.1012 80.4 68.9958 80.4 68.8669C80.4 68.738 79.8918 68.0916 79.2706 67.4303C78.6494 66.7691 78.1412 66.1378 78.1412 66.0274C78.1412 65.9168 78.2682 65.728 78.4235 65.6076C78.5788 65.4871 78.7059 65.267 78.7059 65.1183C78.7059 64.9697 78.7694 64.8481 78.8471 64.8481C78.9247 64.8481 78.9882 64.7114 78.9882 64.5443C78.9882 64.3772 79.0518 64.2405 79.1294 64.2405C79.2071 64.2405 79.2706 64.0354 79.2706 63.7848C79.2706 63.5342 79.3341 63.3291 79.4118 63.3291C79.4894 63.3291 79.5529 63.0557 79.5529 62.7215C79.5529 62.3873 79.4894 62.1139 79.4118 62.1139C79.3341 62.1139 79.2706 61.8405 79.2706 61.5063C79.2706 61.1721 79.2071 60.8987 79.1294 60.8987C79.0518 60.8987 78.9882 60.762 78.9882 60.5949C78.9882 60.4278 78.9247 60.2911 78.8471 60.2911C78.7694 60.2911 78.7059 60.1544 78.7059 59.9873C78.7059 59.8202 78.6424 59.6835 78.5647 59.6835C78.4871 59.6835 78.4235 59.578 78.4235 59.4488C78.4235 59.1449 77.7947 58.4683 77.5122 58.4683C77.3922 58.4683 77.2941 58.4 77.2941 58.3164C77.2941 58.2329 77.1035 58.1645 76.8706 58.1645C76.6376 58.1645 76.4471 58.0962 76.4471 58.0126C76.4471 57.9154 75.1765 57.8607 72.9176 57.8607H69.3882V59.9873ZM90 58.0126C90 58.0962 89.6824 58.1645 89.2941 58.1645C88.9059 58.1645 88.5882 58.2329 88.5882 58.3164C88.5882 58.4 88.3977 58.4683 88.1647 58.4683C87.9318 58.4683 87.7412 58.5367 87.7412 58.6202C87.7412 58.7038 87.6141 58.7721 87.4588 58.7721C87.3035 58.7721 87.1765 58.8405 87.1765 58.924C87.1765 59.0076 87.0494 59.0759 86.8941 59.0759C86.7388 59.0759 86.6118 59.1443 86.6118 59.2278C86.6118 59.3114 86.5151 59.3797 86.3969 59.3797C86.1174 59.3797 84.6353 60.9744 84.6353 61.2751C84.6353 61.4023 84.5718 61.5063 84.4941 61.5063C84.4165 61.5063 84.3529 61.7114 84.3529 61.962C84.3529 62.2126 84.2894 62.4177 84.2118 62.4177C84.1204 62.4177 84.0706 64.2405 84.0706 67.5822V72.7468H83.2235H82.3765V74.8734V76.9999H90.5647H98.7529V74.8734V72.7468H98.0471H97.3412V65.3038V57.8607H93.6706C91.3176 57.8607 90 57.9153 90 58.0126ZM100.729 67.4303V76.9999H104.824C107.459 76.9999 108.918 76.9459 108.918 76.848C108.918 76.7645 109.172 76.6961 109.482 76.6961C109.793 76.6961 110.047 76.6278 110.047 76.5443C110.047 76.4607 110.174 76.3924 110.329 76.3924C110.485 76.3924 110.612 76.324 110.612 76.2405C110.612 76.1569 110.708 76.0886 110.826 76.0886C110.944 76.0886 111.515 75.577 112.096 74.9517C112.677 74.3265 113.153 73.7113 113.153 73.5847C113.153 73.458 113.216 73.3544 113.294 73.3544C113.372 73.3544 113.435 73.2177 113.435 73.0506C113.435 72.8835 113.499 72.7468 113.576 72.7468C113.654 72.7468 113.718 72.4734 113.718 72.1392C113.718 71.805 113.781 71.5316 113.859 71.5316C113.939 71.5316 114 71.0759 114 70.4683C114 69.8607 113.939 69.405 113.859 69.405C113.781 69.405 113.718 69.1316 113.718 68.7974C113.718 68.4633 113.654 68.1898 113.576 68.1898C113.499 68.1898 113.435 67.9998 113.435 67.7677C113.435 67.5198 113.319 67.2552 113.153 67.1266C112.998 67.0061 112.871 66.8187 112.871 66.71C112.871 66.4334 111.371 64.8481 111.109 64.8481C110.991 64.8481 110.894 64.7797 110.894 64.6962C110.894 64.6126 110.767 64.5443 110.612 64.5443C110.456 64.5443 110.329 64.4759 110.329 64.3924C110.329 64.3088 110.139 64.2405 109.906 64.2405C109.673 64.2405 109.482 64.1721 109.482 64.0886C109.482 64.005 109.165 63.9367 108.776 63.9367C108.388 63.9367 108.071 63.8683 108.071 63.7848C108.071 63.7012 107.88 63.6329 107.647 63.6329H107.224V60.7468V57.8607H103.976H100.729V67.4303ZM59.2988 59.2988C59.568 59.5883 59.7882 59.9027 59.7882 59.9972C59.7882 60.0918 59.9788 60.3608 60.2118 60.5949C60.4447 60.829 60.6353 61.1024 60.6353 61.2025C60.6353 61.3026 60.8259 61.576 61.0588 61.8101C61.2918 62.0442 61.4824 62.3176 61.4824 62.4177C61.4824 62.5178 61.6729 62.7912 61.9059 63.0253C62.1388 63.2594 62.3294 63.5452 62.3294 63.6602C62.3294 63.7754 62.4565 63.9681 62.6118 64.0886C62.7671 64.209 62.8941 64.4018 62.8941 64.5169C62.8941 64.6319 63.0847 64.9178 63.3176 65.1519C63.5506 65.3859 63.7412 65.6869 63.7412 65.8204C63.7412 65.954 63.8047 66.0633 63.8824 66.0633C63.96 66.0633 64.0235 66.2 64.0235 66.3671C64.0235 66.5341 63.96 66.6709 63.8824 66.6709C63.8047 66.6709 63.7412 66.7925 63.7412 66.9411C63.7412 67.0898 63.6141 67.3099 63.4588 67.4303C63.3035 67.5508 63.1765 67.7436 63.1765 67.8587C63.1765 67.9737 62.9859 68.2596 62.7529 68.4936C62.52 68.7277 62.3294 69.0136 62.3294 69.1286C62.3294 69.2437 62.2024 69.4365 62.0471 69.5569C61.8918 69.6774 61.7647 69.8701 61.7647 69.9853C61.7647 70.1003 61.5741 70.3861 61.3412 70.6202C61.1082 70.8543 60.9176 71.1402 60.9176 71.2551C60.9176 71.3703 60.7906 71.563 60.6353 71.6835C60.48 71.804 60.3529 71.9967 60.3529 72.1119C60.3529 72.2268 60.1624 72.5127 59.9294 72.7468C59.6965 72.9809 59.5059 73.2525 59.5059 73.3503C59.5059 73.7185 59.0886 73.962 58.4571 73.962C58.1022 73.962 57.8118 73.8936 57.8118 73.8101C57.8118 73.7265 57.6212 73.6582 57.3882 73.6582C57.1553 73.6582 56.9647 73.5898 56.9647 73.5063C56.9647 73.4227 56.7741 73.3544 56.5412 73.3544C56.3082 73.3544 56.1176 73.286 56.1176 73.2025C56.1176 73.1189 55.9271 73.0506 55.6941 73.0506C55.4612 73.0506 55.2706 72.9822 55.2706 72.8987C55.2706 72.8151 55.08 72.7468 54.8471 72.7468C54.6141 72.7468 54.4235 72.6784 54.4235 72.5949C54.4235 72.5113 54.2329 72.443 54 72.443C53.7671 72.443 53.5765 72.3746 53.5765 72.2911C53.5765 72.2076 53.3224 72.1392 53.0118 72.1392C52.7012 72.1392 52.4471 72.0708 52.4471 71.9873C52.4471 71.9038 52.2565 71.8354 52.0235 71.8354C51.7906 71.8354 51.6 71.767 51.6 71.6835C51.6 71.6 51.4367 71.5316 51.237 71.5316C50.4786 71.5316 50.4706 71.479 50.4706 66.519C50.4706 61.5589 50.4786 61.5063 51.237 61.5063C51.4367 61.5063 51.6 61.438 51.6 61.3544C51.6 61.2709 51.7906 61.2025 52.0235 61.2025C52.2565 61.2025 52.4471 61.1342 52.4471 61.0506C52.4471 60.9671 52.5741 60.8987 52.7294 60.8987C52.8847 60.8987 53.0118 60.8304 53.0118 60.7468C53.0118 60.6633 53.2024 60.5949 53.4353 60.5949C53.6682 60.5949 53.8588 60.5266 53.8588 60.443C53.8588 60.3595 54.0494 60.2911 54.2824 60.2911C54.5153 60.2911 54.7059 60.2228 54.7059 60.1392C54.7059 60.0557 54.8965 59.9873 55.1294 59.9873C55.3624 59.9873 55.5529 59.919 55.5529 59.8354C55.5529 59.7519 55.7435 59.6835 55.9765 59.6835C56.2094 59.6835 56.4 59.6152 56.4 59.5316C56.4 59.4481 56.5906 59.3797 56.8235 59.3797C57.0565 59.3797 57.2471 59.3114 57.2471 59.2278C57.2471 59.1443 57.4376 59.0759 57.6706 59.0759C57.9035 59.0759 58.0941 59.0076 58.0941 58.924C58.0941 58.5675 58.8328 58.7974 59.2988 59.2988ZM39.5341 62.6405C39.8033 62.9301 40.0235 63.2718 40.0235 63.4C40.0235 63.5281 40.0871 63.6329 40.1647 63.6329C40.2432 63.6329 40.3059 64.038 40.3059 64.5443C40.3059 65.0506 40.2432 65.4557 40.1647 65.4557C40.0871 65.4557 40.0235 65.5612 40.0235 65.6904C40.0235 65.9943 39.3947 66.6709 39.1122 66.6709C38.9922 66.6709 38.8941 66.7392 38.8941 66.8228C38.8941 66.9063 38.5765 66.9747 38.1882 66.9747H37.4824V64.5443V62.1139H38.2635C38.9667 62.1139 39.0936 62.1665 39.5341 62.6405ZM90.5647 67.4303V72.7468H89.2941H88.0235V67.9512C88.0235 62.9212 88.0474 62.7215 88.6488 62.7215C88.7708 62.7215 88.8706 62.6531 88.8706 62.5696C88.8706 62.4861 89.0612 62.4177 89.2941 62.4177C89.5271 62.4177 89.7177 62.3493 89.7177 62.2658C89.7177 62.1823 89.9082 62.1139 90.1412 62.1139H90.5647V67.4303ZM108.635 68.0379C108.635 68.1215 108.733 68.1898 108.853 68.1898C109.136 68.1898 109.765 68.8664 109.765 69.1703C109.765 69.2995 109.828 69.405 109.906 69.405C109.986 69.405 110.047 69.8367 110.047 70.3963C110.047 71.3679 110.035 71.4013 109.415 72.0672C109.001 72.5133 108.661 72.7468 108.427 72.7468C108.231 72.7468 108.071 72.8151 108.071 72.8987C108.071 72.9822 107.88 73.0506 107.647 73.0506H107.224V70.4683V67.886H107.929C108.318 67.886 108.635 67.9544 108.635 68.0379Z" fill="#F2F2F2"/>
</svg>
