<svg width="60" height="60" viewBox="0 0 60 60" fill="none" xmlns="http://www.w3.org/2000/svg">
<circle cx="30" cy="30" r="30" transform="rotate(-180 30 30)" fill="#3F84D1"/>
<path fill-rule="evenodd" clip-rule="evenodd" d="M28.4848 19.4393L18.9388 28.9853C18.353 29.5711 18.353 30.5208 18.9388 31.1066L28.4848 40.6525C29.0706 41.2383 30.0203 41.2383 30.6061 40.6525C31.1919 40.0668 31.1919 39.117 30.6061 38.5312L23.6208 31.5459L39.5 31.5459C40.3284 31.5459 41 30.8744 41 30.0459C41 29.2175 40.3284 28.5459 39.5 28.5459L23.6208 28.5459L30.6061 21.5607C31.1919 20.9749 31.1919 20.0251 30.6061 19.4393C30.0203 18.8536 29.0706 18.8536 28.4848 19.4393Z" fill="#ECF6FF"/>
</svg>
