<svg width="31" height="30" viewBox="0 0 31 30" fill="none" xmlns="http://www.w3.org/2000/svg">
<g clip-path="url(#clip0)">
<path d="M6.78229 24.2036C2.27855 19.5039 2.43739 12.043 7.13713 7.53925C11.8369 3.0355 19.2978 3.1944 23.8015 7.89409C28.1702 12.453 28.1702 19.6447 23.8015 24.2036L26.8638 28.2859C27.2188 28.7593 27.1229 29.4309 26.6495 29.7859C26.1761 30.141 25.5045 30.045 25.1495 29.5717L22.1815 25.6137C18.0756 28.6053 12.5083 28.6053 8.40243 25.6137L5.43444 29.5717C5.07941 30.0451 4.40778 30.141 3.93441 29.7859C3.46097 29.4309 3.36504 28.7593 3.72013 28.2859L6.78229 24.2036ZM14.2204 16.0712C14.2204 16.303 14.2956 16.5286 14.4346 16.7141L17.6491 20.9999C18.0041 21.4734 18.6757 21.5693 19.1491 21.2142C19.6225 20.8591 19.7184 20.1876 19.3634 19.7142L16.3632 15.7144V9.64236C16.3632 9.05058 15.8835 8.57087 15.2917 8.57087C14.7 8.57087 14.2202 9.05058 14.2202 9.64236V16.0712H14.2204Z" fill="#8F9BB3"/>
<path d="M21.1496 1.56856C23.2679 -0.497074 26.6597 -0.45432 28.7254 1.66405C30.7541 3.74456 30.7543 7.06305 28.7259 9.14388C28.3074 9.56219 27.6292 9.56219 27.2108 9.14388L21.1496 3.08366C20.7312 2.66522 20.7312 1.987 21.1496 1.56856Z" fill="#8F9BB3"/>
<path d="M1.86162 1.56858C3.95368 -0.522859 7.34488 -0.522859 9.43688 1.56858C9.85519 1.98701 9.85519 2.66524 9.43688 3.08362L3.37666 9.14383C2.95822 9.56215 2.27999 9.56215 1.86162 9.14383C-0.229815 7.05184 -0.229815 3.66064 1.86162 1.56858Z" fill="#8F9BB3"/>
</g>
<defs>
<clipPath id="clip0">
<rect width="30" height="30" fill="white" transform="matrix(-1 0 0 1 30.2695 0)"/>
</clipPath>
</defs>
</svg>
