<svg width="67" height="303" viewBox="0 0 67 303" fill="none" xmlns="http://www.w3.org/2000/svg">
<rect x="66" y="1" width="301" height="79" rx="13" transform="rotate(90 66 1)" fill="#F3F7FA" stroke="#DAE8F2" stroke-width="2"/>
<g opacity="0.3">
<path d="M47.0846 157.012C47.0846 158.052 46.2596 158.902 45.2513 158.902C44.243 158.902 43.418 158.052 43.418 157.012C43.418 155.972 44.243 155.122 45.2513 155.122C46.2596 155.122 47.0846 155.972 47.0846 157.012ZM45.2513 149.451C44.243 149.451 43.418 150.302 43.418 151.341C43.418 152.381 44.243 153.231 45.2513 153.231C46.2596 153.231 47.0846 152.381 47.0846 151.341C47.0846 150.302 46.2596 149.451 45.2513 149.451ZM45.2513 143.78C44.243 143.78 43.418 144.631 43.418 145.671C43.418 146.71 44.243 147.561 45.2513 147.561C46.2596 147.561 47.0846 146.71 47.0846 145.671C47.0846 144.631 46.2596 143.78 45.2513 143.78ZM50.7513 147.561C51.7596 147.561 52.5846 146.71 52.5846 145.671C52.5846 144.631 51.7596 143.78 50.7513 143.78C49.743 143.78 48.918 144.631 48.918 145.671C48.918 146.71 49.743 147.561 50.7513 147.561ZM50.7513 149.451C49.743 149.451 48.918 150.302 48.918 151.341C48.918 152.381 49.743 153.231 50.7513 153.231C51.7596 153.231 52.5846 152.381 52.5846 151.341C52.5846 150.302 51.7596 149.451 50.7513 149.451ZM50.7513 155.122C49.743 155.122 48.918 155.972 48.918 157.012C48.918 158.052 49.743 158.902 50.7513 158.902C51.7596 158.902 52.5846 158.052 52.5846 157.012C52.5846 155.972 51.7596 155.122 50.7513 155.122Z" fill="#3C4E70"/>
</g>
</svg>
