<svg width="17" height="27" viewBox="0 0 17 27" fill="none" xmlns="http://www.w3.org/2000/svg">
<path d="M6.66667 23.3333C6.66667 25.1667 5.16667 26.6667 3.33333 26.6667C1.5 26.6667 0 25.1667 0 23.3333C0 21.5 1.5 20 3.33333 20C5.16667 20 6.66667 21.5 6.66667 23.3333ZM3.33333 10C1.5 10 0 11.5 0 13.3333C0 15.1667 1.5 16.6667 3.33333 16.6667C5.16667 16.6667 6.66667 15.1667 6.66667 13.3333C6.66667 11.5 5.16667 10 3.33333 10ZM3.33333 0C1.5 0 0 1.5 0 3.33333C0 5.16667 1.5 6.66667 3.33333 6.66667C5.16667 6.66667 6.66667 5.16667 6.66667 3.33333C6.66667 1.5 5.16667 0 3.33333 0ZM13.3333 6.66667C15.1667 6.66667 16.6667 5.16667 16.6667 3.33333C16.6667 1.5 15.1667 0 13.3333 0C11.5 0 10 1.5 10 3.33333C10 5.16667 11.5 6.66667 13.3333 6.66667ZM13.3333 10C11.5 10 10 11.5 10 13.3333C10 15.1667 11.5 16.6667 13.3333 16.6667C15.1667 16.6667 16.6667 15.1667 16.6667 13.3333C16.6667 11.5 15.1667 10 13.3333 10ZM13.3333 20C11.5 20 10 21.5 10 23.3333C10 25.1667 11.5 26.6667 13.3333 26.6667C15.1667 26.6667 16.6667 25.1667 16.6667 23.3333C16.6667 21.5 15.1667 20 13.3333 20Z" fill="#A8C6E4"/>
</svg>
