<svg width="60" height="60" viewBox="0 0 60 60" fill="none" xmlns="http://www.w3.org/2000/svg">
<circle cx="30" cy="30" r="30" fill="#ECF6FF"/>
<path fill-rule="evenodd" clip-rule="evenodd" d="M31.5152 40.5607L41.0612 31.0147C41.647 30.4289 41.647 29.4792 41.0612 28.8934L31.5152 19.3475C30.9294 18.7617 29.9797 18.7617 29.3939 19.3475C28.8081 19.9332 28.8081 20.883 29.3939 21.4688L36.3792 28.4541L20.5 28.4541C19.6716 28.4541 19 29.1256 19 29.9541C19 30.7825 19.6716 31.4541 20.5 31.4541L36.3792 31.4541L29.3939 38.4393C28.8081 39.0251 28.8081 39.9749 29.3939 40.5607C29.9797 41.1464 30.9294 41.1464 31.5152 40.5607Z" fill="#3F84D1"/>
</svg>
