<svg width="30" height="30" viewBox="0 0 30 30" fill="none" xmlns="http://www.w3.org/2000/svg">
<path d="M18.9066 7.44336H11.0151C9.0403 7.44336 7.43359 9.05007 7.43359 11.0248V18.9887C7.43359 20.9635 9.0403 22.5702 11.0151 22.5702H18.9066C20.8813 22.5702 22.488 20.9635 22.488 18.9887V11.0248C22.488 9.05007 20.8813 7.44336 18.9066 7.44336ZM14.9759 19.7753C12.299 19.7753 10.1214 17.6208 10.1214 14.9726C10.1214 12.3243 12.2993 10.1698 14.9759 10.1698C17.6524 10.1698 19.8304 12.3243 19.8304 14.9726C19.8304 17.6208 17.6527 19.7753 14.9759 19.7753ZM19.9168 11.1155C19.2859 11.1155 18.7745 10.6042 18.7745 9.97327C18.7745 9.34239 19.2859 8.83105 19.9168 8.83105C20.5476 8.83105 21.059 9.34239 21.059 9.97327C21.059 10.6042 20.5476 11.1155 19.9168 11.1155Z" fill="#FBFBFB"/>
<path d="M15 0C6.71581 0 0 6.71581 0 15C0 23.2842 6.71581 30 15 30C23.2842 30 30 23.2842 30 15C30 6.71581 23.2842 0 15 0ZM24.2615 18.9888C24.2615 21.9406 21.86 24.3418 18.9085 24.3418H11.017C8.06518 24.3418 5.66394 21.9403 5.66394 18.9888V11.0249C5.66394 8.07309 8.06548 5.67184 11.017 5.67184H18.9085C21.8603 5.67184 24.2615 8.07339 24.2615 11.0249V18.9888Z" fill="#FBFBFB"/>
<path d="M14.9779 11.9385C13.2759 11.9385 11.8916 13.2997 11.8916 14.973C11.8916 16.6464 13.2759 18.0076 14.9779 18.0076C16.6798 18.0076 18.0641 16.6464 18.0641 14.973C18.0641 13.2997 16.6798 11.9385 14.9779 11.9385Z" fill="#FBFBFB"/>
</svg>
