<svg width="30" height="30" viewBox="0 0 30 30" fill="none" xmlns="http://www.w3.org/2000/svg">
<path d="M15 0C6.71581 0 0 6.71581 0 15C0 23.2842 6.71581 30 15 30C23.2842 30 30 23.2842 30 15C30 6.71581 23.2842 0 15 0ZM21.5047 16.9827C21.6227 17.1287 21.9035 17.4131 22.3476 17.8365H22.3579L22.3683 17.8466L22.3786 17.8572L22.3996 17.8779C23.3779 18.7868 24.0404 19.5537 24.3875 20.1782C24.4085 20.2125 24.431 20.2563 24.4553 20.3083C24.4793 20.3604 24.5037 20.4522 24.528 20.5839C24.552 20.7163 24.5502 20.8337 24.5228 20.9377C24.4952 21.0414 24.4085 21.1376 24.2628 21.2239C24.1171 21.3109 23.9123 21.3541 23.6486 21.3541L20.9842 21.3961C20.8179 21.4308 20.6235 21.4134 20.4014 21.3441C20.1791 21.2744 19.999 21.1981 19.8603 21.115L19.6519 20.9897C19.4435 20.844 19.2008 20.622 18.9234 20.3239C18.6457 20.0255 18.4081 19.7566 18.2104 19.5172C18.0127 19.2778 17.8009 19.077 17.5752 18.9133C17.3495 18.7503 17.1536 18.6965 16.9872 18.7521C16.9666 18.7594 16.9386 18.7716 16.9039 18.7886C16.8689 18.806 16.8102 18.8559 16.7269 18.9395C16.6435 19.0229 16.569 19.1254 16.503 19.2464C16.437 19.3681 16.378 19.5485 16.3259 19.7879C16.2739 20.027 16.2511 20.2962 16.2584 20.5946C16.2584 20.6983 16.2459 20.7941 16.2219 20.8808C16.1976 20.9675 16.1714 21.0317 16.1437 21.0731L16.1021 21.1251C15.977 21.2574 15.7933 21.3334 15.5506 21.3541H14.3536C13.8608 21.3821 13.3544 21.3249 12.8342 21.1826C12.314 21.0399 11.8575 20.8565 11.4657 20.6308C11.0733 20.4057 10.7162 20.1766 10.3937 19.9442C10.071 19.7115 9.82641 19.5123 9.66002 19.3459L9.39994 19.0959C9.33059 19.0268 9.23507 18.9225 9.1137 18.7835C8.99233 18.6448 8.74442 18.3293 8.36967 17.8365C7.99491 17.3438 7.62715 16.8202 7.26639 16.2648C6.90562 15.7097 6.48067 14.9775 5.99124 14.0686C5.50211 13.16 5.04948 12.2164 4.63305 11.2378C4.59138 11.1271 4.57039 11.0334 4.57039 10.9571C4.57039 10.881 4.58073 10.8254 4.60172 10.7904L4.64339 10.728C4.74742 10.596 4.94515 10.53 5.23656 10.53L8.08829 10.5093C8.17164 10.5233 8.25134 10.5458 8.32769 10.5771C8.40404 10.6082 8.45971 10.6377 8.49438 10.6654L8.5464 10.6967C8.65743 10.7733 8.74047 10.8841 8.79613 11.0298C8.93484 11.3771 9.09454 11.7361 9.27492 12.1072C9.45531 12.4783 9.59766 12.7612 9.7017 12.9553L9.86809 13.2573C10.0692 13.6734 10.2635 14.0345 10.4509 14.3396C10.6386 14.645 10.8065 14.8829 10.9559 15.0526C11.1049 15.2227 11.2488 15.3565 11.3878 15.4532C11.5265 15.5506 11.6445 15.5992 11.7419 15.5992C11.8389 15.5992 11.9326 15.5819 12.0229 15.5472C12.0366 15.5402 12.054 15.5229 12.075 15.4952C12.0959 15.4675 12.1373 15.3912 12.2 15.2659C12.2623 15.1411 12.3092 14.9781 12.3405 14.7767C12.3718 14.576 12.4047 14.2949 12.4394 13.9341C12.474 13.5731 12.474 13.1396 12.4394 12.6331C12.4254 12.3554 12.394 12.1023 12.3457 11.8733C12.297 11.6445 12.2483 11.4848 12.2 11.3945L12.1373 11.2698C11.9639 11.034 11.6692 10.8847 11.2527 10.822C11.1624 10.8086 11.1797 10.7253 11.3048 10.5726C11.4228 10.4406 11.5545 10.3368 11.7002 10.2602C12.068 10.0801 12.8972 9.99676 14.1878 10.0101C14.7567 10.0174 15.2251 10.0622 15.5929 10.1455C15.7316 10.1805 15.8478 10.227 15.9415 10.286C16.0351 10.3447 16.1063 10.4284 16.155 10.5355C16.2034 10.6431 16.2399 10.7542 16.2642 10.8686C16.2885 10.9832 16.3007 11.1414 16.3007 11.3422C16.3007 11.5435 16.2974 11.7346 16.2904 11.9146C16.2834 12.095 16.2748 12.3399 16.2645 12.6483C16.2542 12.9571 16.2487 13.2436 16.2487 13.5071C16.2487 13.5837 16.2453 13.7291 16.2383 13.9442C16.2313 14.1595 16.2292 14.3259 16.2332 14.4436C16.2365 14.5617 16.2487 14.7025 16.2694 14.8652C16.2904 15.0283 16.3302 15.164 16.3892 15.271C16.4479 15.3787 16.5261 15.4636 16.6234 15.5259C16.6788 15.5402 16.7378 15.5539 16.8005 15.5679C16.8628 15.5816 16.9529 15.5439 17.0709 15.4532C17.1886 15.3632 17.3206 15.2433 17.4663 15.0943C17.612 14.9456 17.7924 14.7132 18.0075 14.3971C18.2222 14.082 18.4583 13.7087 18.715 13.2783C19.1314 12.5568 19.5026 11.7759 19.8286 10.9364C19.8563 10.8667 19.891 10.8062 19.9327 10.7542C19.9743 10.7019 20.0124 10.6654 20.047 10.6447L20.0887 10.6133C20.1024 10.6063 20.1197 10.5978 20.1407 10.5875C20.1617 10.5774 20.2067 10.5668 20.2761 10.5562C20.3455 10.5461 20.4148 10.5443 20.4845 10.5513L23.4819 10.53C23.7523 10.4956 23.9744 10.5041 24.1478 10.5558C24.3212 10.6079 24.4288 10.6654 24.4705 10.7277L24.5332 10.8317C24.6926 11.2762 24.1724 12.2955 22.9721 13.8915C22.8054 14.1139 22.5797 14.409 22.2956 14.7764C21.7544 15.4706 21.4423 15.925 21.3596 16.1407C21.241 16.4245 21.2896 16.7056 21.5047 16.9827Z" fill="#FBFBFB"/>
</svg>
