<svg width="176" height="176" viewBox="0 0 176 176" fill="none" xmlns="http://www.w3.org/2000/svg">
<path fill-rule="evenodd" clip-rule="evenodd" d="M74.2 71.4328C74.0414 71.6709 73.7876 71.8657 73.636 71.8657C73.4846 71.8657 73.1082 72.1578 72.8 72.5149C72.4918 72.872 72.1318 73.1642 72 73.1642C71.8682 73.1642 71.5082 73.4564 71.2 73.8134C70.8918 74.1705 70.5318 74.4627 70.4 74.4627C70.2682 74.4627 69.9082 74.7549 69.6 75.112C69.2918 75.4691 68.9154 75.7612 68.764 75.7612C68.6124 75.7612 68.3586 75.956 68.2 76.1941C68.0414 76.4321 67.7876 76.6269 67.636 76.6269C67.4846 76.6269 67.1082 76.9191 66.8 77.2762C66.4918 77.6332 66.1318 77.9254 66 77.9254C65.8682 77.9254 65.5082 78.2176 65.2 78.5747C64.8918 78.9318 64.5154 79.2239 64.364 79.2239C64.2124 79.2239 63.9586 79.4187 63.8 79.6568C63.6414 79.8948 63.3876 80.0896 63.236 80.0896C63.0846 80.0896 62.7082 80.3818 62.4 80.7389C62.0918 81.0959 61.7318 81.3881 61.6 81.3881C61.4682 81.3881 61.1082 81.6803 60.8 82.0374C60.4918 82.3945 60.1154 82.6866 59.964 82.6866C59.8124 82.6866 59.5586 82.8814 59.4 83.1195C59.2414 83.3575 58.9902 83.5523 58.8416 83.5523C58.4352 83.5523 57.8408 84.2524 58.1518 84.3645C58.2884 84.4139 58.4 84.7381 58.4 85.0852C58.4 85.4326 58.49 85.7165 58.6 85.7165C58.71 85.7165 58.8 86.0087 58.8 86.3658C58.8 86.7228 58.89 87.015 59 87.015C59.11 87.015 59.2 87.3072 59.2 87.6643C59.2 88.0214 59.29 88.3135 59.4 88.3135C59.51 88.3135 59.6 88.7031 59.6 89.1792C59.6 89.6553 59.69 90.0449 59.8 90.0449C59.91 90.0449 60 90.337 60 90.6941C60 91.0512 60.09 91.3434 60.2 91.3434C60.31 91.3434 60.4 91.6356 60.4 91.9926C60.4 92.3497 60.49 92.6419 60.6 92.6419C60.71 92.6419 60.8 92.9341 60.8 93.2912C60.8 93.6483 60.89 93.9404 61 93.9404C61.11 93.9404 61.2 94.2326 61.2 94.5897C61.2 94.9468 61.29 95.2389 61.4 95.2389C61.51 95.2389 61.6 95.5311 61.6 95.8882C61.6 96.2453 61.69 96.5374 61.8 96.5374C61.91 96.5374 62 96.8296 62 97.1867C62 97.5438 62.09 97.836 62.2 97.836C62.31 97.836 62.4 98.1281 62.4 98.4852C62.4 98.8423 62.49 99.1345 62.6 99.1345C62.71 99.1345 62.8 99.4266 62.8 99.7837C62.8 100.141 62.89 100.433 63 100.433C63.11 100.433 63.2 100.725 63.2 101.082C63.2 101.439 63.29 101.732 63.4 101.732C63.51 101.732 63.6 102.024 63.6 102.381C63.6 102.738 63.69 103.03 63.8 103.03C63.91 103.03 64 103.322 64 103.679C64 104.036 64.09 104.329 64.2 104.329C64.31 104.329 64.4 104.523 64.4 104.761C64.4 105.189 64.5334 105.194 74.5142 105.194C85.4836 105.194 85.2 105.225 85.2 104.019C85.2 103.713 85.29 103.463 85.4 103.463C85.51 103.463 85.6 103.171 85.6 102.814C85.6 102.457 85.69 102.164 85.8 102.164C85.91 102.164 86 101.872 86 101.515C86 101.158 86.09 100.866 86.2 100.866C86.31 100.866 86.4 100.574 86.4 100.217C86.4 99.8595 86.49 99.5673 86.6 99.5673C86.71 99.5673 86.8 99.2752 86.8 98.9181C86.8 98.561 86.89 98.2688 87 98.2688C87.11 98.2688 87.2 97.9766 87.2 97.6195C87.2 97.2625 87.29 96.9703 87.4 96.9703C87.51 96.9703 87.6 96.5807 87.6 96.1046C87.6 95.6285 87.69 95.2389 87.8 95.2389C87.91 95.2389 88 94.9468 88 94.5897C88 94.2326 88.09 93.9404 88.2 93.9404C88.31 93.9404 88.4 93.6483 88.4 93.2912C88.4 92.9341 88.49 92.6419 88.6 92.6419C88.71 92.6419 88.8 92.3497 88.8 91.9926C88.8 91.6356 88.89 91.3434 89 91.3434C89.11 91.3434 89.2 91.0512 89.2 90.6941C89.2 90.337 89.29 90.0449 89.4 90.0449C89.51 90.0449 89.6 89.7527 89.6 89.3956C89.6 89.0385 89.69 88.7464 89.8 88.7464C89.91 88.7464 90 88.4542 90 88.0971C90 87.74 90.09 87.4478 90.2 87.4478C90.31 87.4478 90.4 87.1557 90.4 86.7986C90.4 86.4415 90.49 86.1493 90.6 86.1493C90.71 86.1493 90.8 85.8572 90.8 85.5001C90.8 85.143 90.89 84.8508 91 84.8508C91.11 84.8508 91.2 84.6978 91.2 84.5108C91.2 84.1115 90.73 83.5523 90.3946 83.5523C90.2658 83.5523 89.9082 83.2601 89.6 82.903C89.2918 82.546 88.9318 82.2538 88.8 82.2538C88.6682 82.2538 88.3082 81.9616 88 81.6045C87.6918 81.2474 87.3154 80.9553 87.164 80.9553C87.0124 80.9553 86.7586 80.7605 86.6 80.5224C86.4414 80.2844 86.1876 80.0896 86.036 80.0896C85.8846 80.0896 85.5082 79.7974 85.2 79.4403C84.8918 79.0833 84.5318 78.7911 84.4 78.7911C84.2682 78.7911 83.9082 78.4989 83.6 78.1418C83.2918 77.7847 82.9154 77.4926 82.764 77.4926C82.6124 77.4926 82.3586 77.2978 82.2 77.0597C82.0414 76.8217 81.7876 76.6269 81.636 76.6269C81.4846 76.6269 81.1082 76.3347 80.8 75.9776C80.4918 75.6205 80.1154 75.3284 79.964 75.3284C79.8124 75.3284 79.5586 75.1336 79.4 74.8955C79.2414 74.6575 78.9876 74.4627 78.836 74.4627C78.6846 74.4627 78.3082 74.1705 78 73.8134C77.6918 73.4564 77.3318 73.1642 77.2 73.1642C77.0682 73.1642 76.7082 72.872 76.4 72.5149C76.0918 72.1578 75.7154 71.8657 75.564 71.8657C75.4124 71.8657 75.1586 71.6709 75 71.4328C74.8414 71.1948 74.6614 71 74.6 71C74.5386 71 74.3586 71.1948 74.2 71.4328ZM20 91.5598V105.194H24.8H29.6V94.3733V83.5523H32.4H35.2V80.7389V77.9254H27.6H20V91.5598ZM38.4 91.5598V105.194H43H47.6V101.082V96.9703H48.4C48.84 96.9703 49.2 96.8729 49.2 96.7539C49.2 96.6348 49.65 96.5374 50.2 96.5374C50.75 96.5374 51.2 96.4401 51.2 96.321C51.2 96.202 51.38 96.1046 51.6 96.1046C51.82 96.1046 52 96.0072 52 95.8882C52 95.7692 52.18 95.6718 52.4 95.6718C52.62 95.6718 52.8 95.5744 52.8 95.4554C52.8 95.3363 52.937 95.2389 53.1044 95.2389C53.5004 95.2389 55.6 92.967 55.6 92.5385C55.6 92.3573 55.69 92.2091 55.8 92.2091C55.91 92.2091 56 92.0143 56 91.7762C56 91.5382 56.09 91.3434 56.2 91.3434C56.31 91.3434 56.4 91.1486 56.4 90.9106C56.4 90.6725 56.49 90.4777 56.6 90.4777C56.71 90.4777 56.8 89.9908 56.8 89.3956C56.8 88.8005 56.89 88.3135 57 88.3135C57.11 88.3135 57.2 87.924 57.2 87.4478C57.2 86.9717 57.11 86.5822 57 86.5822C56.89 86.5822 56.8 86.0952 56.8 85.5001C56.8 84.9049 56.71 84.418 56.6 84.418C56.49 84.418 56.4 84.2232 56.4 83.9851C56.4 83.7471 56.31 83.5523 56.2 83.5523C56.09 83.5523 56 83.3575 56 83.1195C56 82.8814 55.91 82.6866 55.8 82.6866C55.69 82.6866 55.6 82.5384 55.6 82.3572C55.6 81.9287 53.5004 79.6568 53.1044 79.6568C52.937 79.6568 52.8 79.5594 52.8 79.4403C52.8 79.3213 52.62 79.2239 52.4 79.2239C52.18 79.2239 52 79.1265 52 79.0075C52 78.8885 51.82 78.7911 51.6 78.7911C51.38 78.7911 51.2 78.6937 51.2 78.5747C51.2 78.4556 50.84 78.3582 50.4 78.3582C49.96 78.3582 49.6 78.2609 49.6 78.1418C49.6 78.0027 47.6 77.9254 44 77.9254H38.4V91.5598ZM92.8 80.9553V83.9851H94.509C96.057 83.9851 96.2644 84.0351 96.709 84.5165C97.1018 84.9413 97.2 85.2681 97.2 86.1493C97.2 87.6402 96.6118 88.3135 95.309 88.3135H94.4V91.3434V94.3733H96.5142C98.6944 94.3733 99.2 94.5537 99.2 95.3318C99.2 95.5188 99.29 95.6718 99.4 95.6718C99.51 95.6718 99.6 96.1144 99.6 96.6554C99.6 97.4114 99.4864 97.7622 99.109 98.1703C98.63 98.6889 98.5434 98.7016 95.509 98.7016H92.4V101.948V105.194H98.4C102.267 105.194 104.4 105.117 104.4 104.978C104.4 104.859 104.67 104.761 105 104.761C105.33 104.761 105.6 104.664 105.6 104.545C105.6 104.426 105.76 104.329 105.956 104.329C106.152 104.329 106.441 104.134 106.6 103.896C106.759 103.658 107.01 103.463 107.158 103.463C107.525 103.463 108 102.922 108 102.504C108 102.317 108.09 102.164 108.2 102.164C108.31 102.164 108.4 101.97 108.4 101.732C108.4 101.493 108.49 101.299 108.6 101.299C108.71 101.299 108.8 101.104 108.8 100.866C108.8 100.628 108.89 100.433 109 100.433C109.123 100.433 109.2 99.3509 109.2 97.6195C109.2 95.8882 109.123 94.8061 109 94.8061C108.89 94.8061 108.8 94.6113 108.8 94.3733C108.8 94.1352 108.71 93.9404 108.6 93.9404C108.49 93.9404 108.4 93.7902 108.4 93.6065C108.4 93.423 107.68 92.5019 106.8 91.5598C105.92 90.6177 105.2 89.7183 105.2 89.561C105.2 89.4034 105.38 89.1344 105.6 88.9628C105.82 88.7912 106 88.4776 106 88.2657C106 88.054 106.09 87.8807 106.2 87.8807C106.31 87.8807 106.4 87.6859 106.4 87.4478C106.4 87.2098 106.49 87.015 106.6 87.015C106.71 87.015 106.8 86.7228 106.8 86.3658C106.8 86.0087 106.89 85.7165 107 85.7165C107.11 85.7165 107.2 85.3269 107.2 84.8508C107.2 84.3747 107.11 83.9851 107 83.9851C106.89 83.9851 106.8 83.5956 106.8 83.1195C106.8 82.6433 106.71 82.2538 106.6 82.2538C106.49 82.2538 106.4 82.059 106.4 81.821C106.4 81.5829 106.31 81.3881 106.2 81.3881C106.09 81.3881 106 81.1933 106 80.9553C106 80.7172 105.91 80.5224 105.8 80.5224C105.69 80.5224 105.6 80.372 105.6 80.1881C105.6 79.755 104.709 78.7911 104.309 78.7911C104.139 78.7911 104 78.6937 104 78.5747C104 78.4556 103.73 78.3582 103.4 78.3582C103.07 78.3582 102.8 78.2609 102.8 78.1418C102.8 78.0033 101 77.9254 97.8 77.9254H92.8V80.9553ZM122 78.1418C122 78.2609 121.55 78.3582 121 78.3582C120.45 78.3582 120 78.4556 120 78.5747C120 78.6937 119.73 78.7911 119.4 78.7911C119.07 78.7911 118.8 78.8885 118.8 79.0075C118.8 79.1265 118.62 79.2239 118.4 79.2239C118.18 79.2239 118 79.3213 118 79.4403C118 79.5594 117.82 79.6568 117.6 79.6568C117.38 79.6568 117.2 79.7542 117.2 79.8732C117.2 79.9922 117.063 80.0896 116.896 80.0896C116.5 80.0896 114.4 82.3616 114.4 82.7901C114.4 82.9712 114.31 83.1195 114.2 83.1195C114.09 83.1195 114 83.4116 114 83.7687C114 84.1258 113.91 84.418 113.8 84.418C113.671 84.418 113.6 87.015 113.6 91.7762V99.1345H112.4H111.2V102.164V105.194H122.8H134.4V102.164V99.1345H133.4H132.4V88.5299V77.9254H127.2C123.867 77.9254 122 78.0031 122 78.1418ZM137.2 91.5598V105.194H143C146.733 105.194 148.8 105.117 148.8 104.978C148.8 104.859 149.16 104.761 149.6 104.761C150.04 104.761 150.4 104.664 150.4 104.545C150.4 104.426 150.58 104.329 150.8 104.329C151.02 104.329 151.2 104.231 151.2 104.112C151.2 103.993 151.336 103.896 151.503 103.896C151.67 103.896 152.48 103.167 153.303 102.276C154.126 101.385 154.8 100.509 154.8 100.328C154.8 100.148 154.89 100 155 100C155.11 100 155.2 99.8054 155.2 99.5673C155.2 99.3293 155.29 99.1345 155.4 99.1345C155.51 99.1345 155.6 98.7449 155.6 98.2688C155.6 97.7927 155.69 97.4031 155.8 97.4031C155.914 97.4031 156 96.7539 156 95.8882C156 95.0225 155.914 94.3733 155.8 94.3733C155.69 94.3733 155.6 93.9837 155.6 93.5076C155.6 93.0315 155.51 92.6419 155.4 92.6419C155.29 92.6419 155.2 92.3712 155.2 92.0405C155.2 91.6873 155.035 91.3103 154.8 91.127C154.58 90.9554 154.4 90.6883 154.4 90.5336C154.4 90.1395 152.275 87.8807 151.904 87.8807C151.737 87.8807 151.6 87.7833 151.6 87.6643C151.6 87.5452 151.42 87.4478 151.2 87.4478C150.98 87.4478 150.8 87.3505 150.8 87.2314C150.8 87.1124 150.53 87.015 150.2 87.015C149.87 87.015 149.6 86.9176 149.6 86.7986C149.6 86.6796 149.15 86.5822 148.6 86.5822C148.05 86.5822 147.6 86.4848 147.6 86.3658C147.6 86.2467 147.33 86.1493 147 86.1493H146.4V82.0374V77.9254H141.8H137.2V91.5598ZM78.5066 79.9742C78.888 80.3867 79.2 80.8347 79.2 80.9693C79.2 81.1042 79.47 81.4875 79.8 81.821C80.13 82.1545 80.4 82.544 80.4 82.6866C80.4 82.8292 80.67 83.2188 81 83.5523C81.33 83.8858 81.6 84.2754 81.6 84.418C81.6 84.5606 81.87 84.9502 82.2 85.2837C82.53 85.6172 82.8 86.0245 82.8 86.1883C82.8 86.3523 82.98 86.627 83.2 86.7986C83.42 86.9702 83.6 87.2448 83.6 87.4089C83.6 87.5727 83.87 87.98 84.2 88.3135C84.53 88.647 84.8 89.0758 84.8 89.266C84.8 89.4564 84.89 89.612 85 89.612C85.11 89.612 85.2 89.8068 85.2 90.0449C85.2 90.2829 85.11 90.4777 85 90.4777C84.89 90.4777 84.8 90.6511 84.8 90.8627C84.8 91.0746 84.62 91.3882 84.4 91.5598C84.18 91.7314 84 92.0061 84 92.1701C84 92.3339 83.73 92.7412 83.4 93.0747C83.07 93.4082 82.8 93.8155 82.8 93.9794C82.8 94.1434 82.62 94.4181 82.4 94.5897C82.18 94.7613 82 95.0359 82 95.2C82 95.3638 81.73 95.7711 81.4 96.1046C81.07 96.4381 80.8 96.8454 80.8 97.0092C80.8 97.1733 80.62 97.4479 80.4 97.6195C80.18 97.7912 80 98.0658 80 98.2298C80 98.3937 79.73 98.801 79.4 99.1345C79.07 99.468 78.8 99.8549 78.8 99.9943C78.8 100.519 78.2088 100.866 77.3142 100.866C76.8114 100.866 76.4 100.768 76.4 100.649C76.4 100.53 76.13 100.433 75.8 100.433C75.47 100.433 75.2 100.336 75.2 100.217C75.2 100.098 74.93 100 74.6 100C74.27 100 74 99.9028 74 99.7837C74 99.6647 73.73 99.5673 73.4 99.5673C73.07 99.5673 72.8 99.4699 72.8 99.3509C72.8 99.2319 72.53 99.1345 72.2 99.1345C71.87 99.1345 71.6 99.0371 71.6 98.9181C71.6 98.799 71.33 98.7016 71 98.7016C70.67 98.7016 70.4 98.6042 70.4 98.4852C70.4 98.3662 70.04 98.2688 69.6 98.2688C69.16 98.2688 68.8 98.1714 68.8 98.0524C68.8 97.9334 68.53 97.836 68.2 97.836C67.87 97.836 67.6 97.7386 67.6 97.6195C67.6 97.5005 67.3686 97.4031 67.0858 97.4031C66.0114 97.4031 66 97.3282 66 90.2613C66 83.1943 66.0114 83.1195 67.0858 83.1195C67.3686 83.1195 67.6 83.0221 67.6 82.903C67.6 82.784 67.87 82.6866 68.2 82.6866C68.53 82.6866 68.8 82.5892 68.8 82.4702C68.8 82.3512 68.98 82.2538 69.2 82.2538C69.42 82.2538 69.6 82.1564 69.6 82.0374C69.6 81.9183 69.87 81.821 70.2 81.821C70.53 81.821 70.8 81.7236 70.8 81.6045C70.8 81.4855 71.07 81.3881 71.4 81.3881C71.73 81.3881 72 81.2907 72 81.1717C72 81.0527 72.27 80.9553 72.6 80.9553C72.93 80.9553 73.2 80.8579 73.2 80.7389C73.2 80.6198 73.47 80.5224 73.8 80.5224C74.13 80.5224 74.4 80.425 74.4 80.306C74.4 80.187 74.67 80.0896 75 80.0896C75.33 80.0896 75.6 79.9922 75.6 79.8732C75.6 79.7542 75.87 79.6568 76.2 79.6568C76.53 79.6568 76.8 79.5594 76.8 79.4403C76.8 78.9324 77.8464 79.2598 78.5066 79.9742ZM50.5066 84.7355C50.888 85.148 51.2 85.6349 51.2 85.8176C51.2 86 51.29 86.1493 51.4 86.1493C51.5112 86.1493 51.6 86.7265 51.6 87.4478C51.6 88.1692 51.5112 88.7464 51.4 88.7464C51.29 88.7464 51.2 88.8968 51.2 89.0807C51.2 89.5138 50.3092 90.4777 49.909 90.4777C49.739 90.4777 49.6 90.5751 49.6 90.6941C49.6 90.8132 49.15 90.9106 48.6 90.9106H47.6V87.4478V83.9851H48.7066C49.7028 83.9851 49.8826 84.06 50.5066 84.7355ZM122.8 91.5598V99.1345H121H119.2V92.3019C119.2 85.1354 119.234 84.8508 120.086 84.8508C120.259 84.8508 120.4 84.7534 120.4 84.6344C120.4 84.5154 120.67 84.418 121 84.418C121.33 84.418 121.6 84.3206 121.6 84.2016C121.6 84.0825 121.87 83.9851 122.2 83.9851H122.8V91.5598ZM148.4 92.4255C148.4 92.5445 148.539 92.6419 148.709 92.6419C149.109 92.6419 150 93.6058 150 94.0389C150 94.2228 150.09 94.3733 150.2 94.3733C150.313 94.3733 150.4 94.9883 150.4 95.7856C150.4 97.1698 150.382 97.2174 149.505 98.1662C148.918 98.8018 148.437 99.1345 148.105 99.1345C147.827 99.1345 147.6 99.2319 147.6 99.3509C147.6 99.4699 147.33 99.5673 147 99.5673H146.4V95.8882V92.2091H147.4C147.95 92.2091 148.4 92.3065 148.4 92.4255Z" fill="#FF8F3F"/>
</svg>
